<?xml version="1.0" encoding="UTF-8" standalone="no"?>
<!-- Created with Inkscape (http://www.inkscape.org/) -->

<svg
   version="1.1"
   id="svg2"
   width="432"
   height="288"
   viewBox="0 0 432 288"
   sodipodi:docname="Lorem_Ipsum.eps"
   xmlns:inkscape="http://www.inkscape.org/namespaces/inkscape"
   xmlns:sodipodi="http://sodipodi.sourceforge.net/DTD/sodipodi-0.dtd"
   xmlns="http://www.w3.org/2000/svg"
   xmlns:svg="http://www.w3.org/2000/svg">
  <defs
     id="defs6" />
  <sodipodi:namedview
     id="namedview4"
     pagecolor="#ffffff"
     bordercolor="#000000"
     borderopacity="0.25"
     inkscape:showpageshadow="2"
     inkscape:pageopacity="0.0"
     inkscape:pagecheckerboard="0"
     inkscape:deskcolor="#d1d1d1" />
  <g
     id="g8"
     inkscape:groupmode="layer"
     inkscape:label="ink_ext_XXXXXX"
     transform="matrix(1.3333333,0,0,-1.3333333,0,288)">
    <g
       id="g10"
       transform="scale(0.1)">
      <path
         d="m 2727.62,804.238 c -1.78,1.203 -3.75,2.203 -5.99,2.973 -2.17,0.687 -4.44,1.348 -6.71,1.871 -2.32,0.539 -4.57,1.039 -6.8,1.52 -2.25,0.429 -4.2,1.046 -5.98,1.73 -1.74,0.719 -3.15,1.609 -4.22,2.699 -1.02,1.141 -1.57,2.571 -1.57,4.367 0,1.852 0.34,3.454 1.12,4.75 0.73,1.274 1.71,2.274 2.91,3.043 1.23,0.731 2.63,1.25 4.18,1.61 1.54,0.32 3.16,0.48 4.81,0.48 3.96,0 7.29,-0.961 9.86,-2.801 2.57,-1.859 4.03,-4.878 4.49,-9.058 h 7.31 c -0.14,3.199 -0.73,5.949 -1.85,8.25 -1.08,2.289 -2.6,4.199 -4.54,5.719 -1.9,1.531 -4.13,2.64 -6.7,3.339 -2.54,0.731 -5.3,1.071 -8.27,1.071 -2.63,0 -5.25,-0.34 -7.7,-1.02 -2.57,-0.679 -4.78,-1.711 -6.75,-3.07 -2.02,-1.379 -3.61,-3.109 -4.8,-5.27 -1.16,-2.14 -1.77,-4.691 -1.77,-7.589 0,-2.633 0.54,-4.864 1.59,-6.614 1.04,-1.758 2.48,-3.179 4.23,-4.297 1.75,-1.089 3.73,-2.019 5.93,-2.652 2.25,-0.711 4.52,-1.277 6.79,-1.777 2.32,-0.551 4.52,-1.024 6.8,-1.524 2.2,-0.5 4.16,-1.117 5.91,-1.937 1.75,-0.742 3.17,-1.781 4.26,-3.012 1.01,-1.23 1.58,-2.848 1.58,-4.867 0,-2.113 -0.46,-3.844 -1.32,-5.184 -0.87,-1.359 -2,-2.418 -3.41,-3.207 -1.41,-0.793 -3,-1.332 -4.75,-1.679 -1.72,-0.313 -3.48,-0.473 -5.23,-0.473 -2.16,0 -4.27,0.269 -6.32,0.82 -2.04,0.52 -3.84,1.379 -5.38,2.551 -1.54,1.109 -2.79,2.531 -3.73,4.281 -0.95,1.778 -1.42,3.867 -1.42,6.297 h -7.35 c 0,-3.519 0.67,-6.558 1.92,-9.109 1.28,-2.59 2.99,-4.68 5.19,-6.34 2.19,-1.66 4.73,-2.891 7.64,-3.707 2.89,-0.813 5.97,-1.25 9.18,-1.25 2.66,0 5.32,0.34 8.02,0.957 2.66,0.609 5.09,1.641 7.25,3 2.16,1.383 3.91,3.18 5.31,5.34 1.37,2.203 2.07,4.812 2.07,7.91 0,2.859 -0.51,5.242 -1.56,7.16 -1.09,1.883 -2.48,3.422 -4.23,4.699 z m 62.51,30.203 -18.31,-48.722 -18.3,48.722 h -10.54 v -57.972 h 7.34 v 48.222 h 0.18 l 18.04,-48.222 h 6.57 l 18.07,48.222 h 0.16 v -48.222 h 7.34 v 57.972 z M 2674.67,626.93 c -19.22,2.66 -20.26,8 -20.26,46.422 v 91.757 c 0,36.84 -20.82,66.141 -63.47,66.141 -25.09,0 -51.22,-12.238 -72.6,-27.191 -4.84,-3.188 -8.52,-5.34 -13.29,-4.227 -15,21.859 -29.91,31.418 -56.58,31.418 -25.65,0 -50.72,-12.789 -70.97,-27.191 -3.73,0 -5.85,2.703 -5.85,5.89 0,4.789 0,12.813 1.06,25.071 -1.06,2.671 -3.75,3.73 -5.91,3.73 -10.65,-8.012 -41.08,-21.879 -53.33,-26.148 -2.63,-1.59 -2.63,-7.454 -0.55,-9.59 l 4.8,-3.18 c 14.4,-9.633 14.4,-12.301 14.4,-33.113 v -93.367 c 0,-38.422 -0.49,-43.762 -20.28,-46.422 l -10.98,-1.36 c 0.66,3.891 -0.3,8.719 -2.32,10.43 -7.5,-1.59 -14.38,-2.68 -20.81,-2.68 -14.93,0 -16.54,16.02 -16.54,58.168 v 89.641 c 0,19.742 0.52,36.269 1.61,46.402 -0.52,2.129 -2.14,3.207 -4.82,3.719 -11.74,-5.309 -41.08,-9.059 -62.42,-9.559 -4.27,-2.132 -4.27,-9.613 -0.55,-11.742 l 6.94,-2.687 c 16.01,-6.391 19.76,-7.43 19.76,-42.153 v -87.507 c 0,-16.543 -3.75,-24.524 -10.7,-30.93 -11.75,-10.152 -28.83,-15.992 -43.21,-15.992 -40.54,0 -49.61,24.519 -49.61,61.308 v 89.141 c 0,26.133 0.55,37.332 1.59,46.402 -0.52,2.129 -2.14,3.207 -5.34,3.719 -11.7,-4.219 -32.54,-9.059 -57.05,-9.559 -3.75,-1.64 -4.3,-9.089 -1.1,-11.742 l 6.41,-2.687 c 16.03,-6.953 16.03,-11.75 16.03,-45.352 v -89.101 c 0,-43.219 17.58,-66.688 64.53,-66.688 31.49,0 57.62,17.609 73.64,27.758 3.2,0 4.81,-2.668 4.81,-7.5 v -21.867 c 1.08,-2.121 3.75,-3.731 6.39,-3.731 17.81,9.949 47.9,15.27 68.69,19.5 -0.24,-3.441 1.03,-7.301 3.34,-8.269 16.53,1.039 32.57,1.609 51.77,1.609 18.65,0 34.13,-0.57 48.53,-1.609 3.75,1.609 4.84,10.648 1.07,13.328 l -9.61,1.59 c -19.18,3.199 -20.24,8 -20.24,46.422 v 82.687 c 0,17.109 2.63,24.02 7.96,30.41 8.03,9.66 22.93,19.223 44.84,19.223 33.06,0 49.11,-19.223 49.11,-54.942 v -77.378 c 0,-38.422 -0.58,-43.223 -20.29,-46.422 l -9.59,-1.59 c -3.77,-2.68 -2.66,-11.719 1.01,-13.328 14.96,1.039 29.34,1.609 48.55,1.609 18.7,0 34.17,-0.57 50.16,-1.609 3.77,1.609 4.85,10.648 1.12,13.328 l -11.22,1.59 c -19.2,2.66 -20.28,8 -20.28,46.422 v 81.609 c 0,18.668 1.61,24.027 8,32.059 7.48,9.589 23.99,18.652 44.27,18.652 33.63,0 49.63,-18.652 49.63,-54.942 v -77.378 c 0,-38.422 -0.53,-43.223 -20.28,-46.422 l -9.63,-1.59 c -3.73,-2.68 -2.63,-11.719 1.09,-13.328 14.95,1.039 29.38,1.609 48.58,1.609 18.7,0 34.15,-0.57 51.74,-1.609 3.73,1.609 4.8,10.648 1.09,13.328 z m -685.09,112.05 c -18.68,10.668 -41.08,22.418 -41.08,44.29 0,19.199 13.36,32.539 34.17,32.539 21.91,0 37.88,-15.5 46.94,-38.981 2.67,-3.199 10.69,-2.09 12.8,1.641 0,14.41 -3.7,31.48 -8.5,43.222 -4.84,4.25 -24.54,9.559 -46.97,9.559 -40.56,0 -72.57,-21.852 -72.57,-60.801 0,-29.308 21.86,-48.008 52.85,-65.648 19.72,-11.199 41.06,-24.492 41.06,-49.051 0,-22.949 -16.55,-34.16 -35.77,-34.16 -30.4,0 -47.47,25.629 -56.56,54.949 -2.67,3.199 -9.58,2.672 -12.24,-0.527 -1.07,-17.614 2.13,-43.742 6.38,-53.922 13.34,-10.629 32.02,-15.969 57.13,-15.969 39.45,0 76.83,20.258 76.83,60.828 0,37.852 -26.18,56 -54.47,72.031 z M 1783.1,623.73 c -11.18,0 -27.7,3.75 -38.39,11.739 -10.69,8.551 -16.01,14.953 -16.01,32.031 v 91.738 c 0,17.59 1.57,25.621 6.4,31.481 5.87,6.402 22.39,14.953 45.33,14.953 48.02,0 72.04,-43.242 72.04,-85.891 0,-55.519 -25.59,-96.051 -69.37,-96.051 z m 24.01,207.52 c -34.13,0 -67.76,-21.852 -74.66,-25.051 -3.75,0 -4.82,3.199 -4.82,6.949 0,6.903 1.07,14.954 2.13,24.543 -1.06,2.641 -3.2,3.719 -6.38,3.719 -13.88,-10.16 -38.97,-22.949 -52.83,-28.808 -2.68,-1.59 -2.68,-7.454 -0.53,-9.59 l 4.8,-3.18 c 14.4,-9.633 14.4,-12.301 14.4,-33.113 V 537.27 c 0,-38.379 -0.56,-43.75 -20.28,-46.379 l -11.18,-1.621 c -3.78,-2.668 -2.71,-11.75 1.01,-13.34 14.96,1.082 30.93,1.59 50.18,1.59 18.68,0 34.13,-0.508 59.77,-1.59 3.72,1.59 4.81,10.672 1.08,13.34 l -20.83,2.671 c -19.21,2.668 -20.27,7.45 -20.27,45.329 v 56.05 c 0,11.192 2.68,13.891 7.45,14.942 4.82,-1.051 19.74,-2.141 29.36,-2.141 75.75,0 130.2,53.348 130.2,127.539 0,53.871 -34.72,97.59 -88.6,97.59 z m -205.41,59.789 c 14.98,0 28.29,8.539 28.29,27.723 0,14.976 -10.7,27.769 -26.65,27.769 -16.05,0 -28.84,-11.179 -28.84,-28.793 0,-14.418 10.66,-26.699 27.2,-26.699 z m 54.97,-265.699 -11.21,1.59 c -19.2,2.66 -20.26,8 -20.26,46.422 v 96.058 c 0,21.871 1.06,47.461 2.11,66.141 -0.52,2.14 -2.64,3.199 -5.34,3.199 -12.25,-8.012 -42.65,-21.879 -54.95,-26.148 -2.65,-1.59 -2.65,-7.454 -0.52,-9.59 l 4.82,-3.18 c 14.38,-9.633 14.38,-12.301 14.38,-33.113 v -93.367 c 0,-38.422 -0.54,-43.762 -20.27,-46.422 l -11.2,-1.59 c -3.75,-2.68 -2.68,-11.719 1.04,-13.328 14.98,1.039 30.98,1.609 50.18,1.609 18.65,0 34.15,-0.57 50.19,-1.609 3.71,1.609 4.76,10.648 1.03,13.328 z m -209.31,211.91 c -14.65,0 -27.56,-3.129 -38.65,-8.93 -11.59,-6.23 -21.79,-14.648 -30.26,-26.199 h -0.89 c -9.34,22.25 -31.11,35.129 -59.13,35.129 -37.79,0 -56.92,-21.379 -64.91,-32.469 h -1.8 l -3.11,27.571 h -67.13 c 0.89,-20.454 1.78,-45.332 1.78,-74.692 V 613.621 h 77.8 V 738.52 c 0,5.359 0.45,11.128 2.25,16.441 3.09,7.168 10.2,17.828 24.41,17.828 18.26,0 25.81,-16 25.81,-40.488 v -118.68 h 77.8 V 738.09 c 0,4.879 0.45,11.558 2.25,16 3.54,10.68 11.54,18.699 24.45,18.699 17.77,0 25.79,-15.59 25.79,-42.699 V 613.621 h 77.8 V 742.09 c 0,60.922 -27.15,95.16 -74.26,95.16 z m -417.51,-88.051 c 1.34,13.789 10.71,35.59 34.25,35.59 25.33,0 31.12,-23.129 31.12,-35.59 z m 38.27,88.051 c -80.511,0 -113.417,-65.82 -113.417,-116.488 0,-69.383 43.61,-111.602 120.507,-111.602 27.13,0 55.56,3.52 81.85,13.77 l -10.27,53.332 c -19.52,-6.231 -39.13,-8.422 -59.56,-8.422 -28.45,0 -53.79,9.762 -56.47,27.101 h 135.16 c 1.32,5.368 3.13,17.36 3.13,30.239 0,60.039 -30.24,112.07 -100.93,112.07 z M 873.559,792.789 h -1.77 l -3.113,39.563 h -68.488 c 1.339,-18.25 1.769,-39.133 1.769,-73.782 V 613.621 h 80.488 v 108 c 0,5.359 0.457,10.27 0.887,13.809 4.453,17.75 20.473,27.558 44.035,27.558 8.43,0 14.66,-0.859 20.449,-2.238 v 75.141 c -5.789,1.359 -8.878,1.359 -16.019,1.359 -19.106,0 -46.695,-11.102 -58.238,-44.461 z M 669.941,665.172 h -0.453 c -24.472,0 -35.133,24.859 -35.133,57.777 0,28.942 8.907,57.821 35.586,57.821 23.539,0 33.336,-27.59 33.336,-57.821 0,-35.097 -11.566,-57.777 -33.336,-57.777 z m 2.204,172.078 c -74.692,0 -120.5,-46.262 -120.5,-116.039 0,-71.152 50.695,-112.52 116.089,-112.52 h 0.411 c 60.918,0 117.843,36.918 117.843,116.489 0,65.808 -45.383,112.07 -113.843,112.07 z M 454.73,613.621 h 80.485 v 316.09 H 454.73 v -316.09"
         style="fill:#241d10;fill-opacity:1;fill-rule:nonzero;stroke:none"
         id="path12" />
      <path
         d="m 2205.97,1194.24 c 0,0 -78.55,6.72 -118.23,6.72 -40.81,0 -74.82,-1.13 -108.84,-3.38 -7.98,3.38 -10.2,22.65 -2.27,28.33 l 26.08,3.39 c 41.92,5.68 43.09,16.99 43.09,98.64 v 278.15 c -31.18,-19.86 -61.2,-43.71 -89.14,-71.65 -158.04,-158.03 -189.06,-383.27 -69.26,-503 84.28,-84.28 220.65,-93.838 349.16,-37.131 v 129.681 c 0,44.21 -5.09,65.97 -30.59,70.25"
         style="fill:#231f20;fill-opacity:1;fill-rule:nonzero;stroke:none"
         id="path14" />
      <path
         d="m 2459.65,1603.68 c -80.06,80.1 -207.25,92.69 -329.99,45.09 v -320.83 c 0,-81.65 3.87,-95.46 43.09,-98.64 0,0 116.47,31.79 140.91,47.74 5.67,0 10.22,-2.27 11.35,-6.82 -2.27,-39.65 -4.57,-94.09 -4.57,-140.59 v -87.78 c 24.32,17.11 47.84,36.68 69.99,58.81 158.02,158.09 189.02,383.27 69.22,503.02"
         style="fill:#231f20;fill-opacity:1;fill-rule:nonzero;stroke:none"
         id="path16" />
      <path
         d="m 2270.57,1388.15 c -35.15,0 -57.8,26.07 -57.8,56.67 0,37.43 27.2,61.22 61.23,61.22 33.99,0 56.67,-27.17 56.67,-58.94 0,-40.81 -28.33,-58.95 -60.1,-58.95"
         style="fill:#00adef;fill-opacity:1;fill-rule:nonzero;stroke:none"
         id="path18" />
      <path
         d="M 270,360 H 0"
         style="fill:none;stroke:#000000;stroke-width:5;stroke-linecap:butt;stroke-linejoin:miter;stroke-miterlimit:4;stroke-dasharray:none;stroke-opacity:1"
         id="path20" />
      <path
         d="M 360,270 V 0"
         style="fill:none;stroke:#000000;stroke-width:5;stroke-linecap:butt;stroke-linejoin:miter;stroke-miterlimit:4;stroke-dasharray:none;stroke-opacity:1"
         id="path22" />
      <path
         d="M 270,1800 H 0"
         style="fill:none;stroke:#000000;stroke-width:5;stroke-linecap:butt;stroke-linejoin:miter;stroke-miterlimit:4;stroke-dasharray:none;stroke-opacity:1"
         id="path24" />
      <path
         d="m 360,1890 v 270"
         style="fill:none;stroke:#000000;stroke-width:5;stroke-linecap:butt;stroke-linejoin:miter;stroke-miterlimit:4;stroke-dasharray:none;stroke-opacity:1"
         id="path26" />
      <path
         d="m 2970,1800 h 270"
         style="fill:none;stroke:#000000;stroke-width:5;stroke-linecap:butt;stroke-linejoin:miter;stroke-miterlimit:4;stroke-dasharray:none;stroke-opacity:1"
         id="path28" />
      <path
         d="m 2880,1890 v 270"
         style="fill:none;stroke:#000000;stroke-width:5;stroke-linecap:butt;stroke-linejoin:miter;stroke-miterlimit:4;stroke-dasharray:none;stroke-opacity:1"
         id="path30" />
      <path
         d="m 2970,360 h 270"
         style="fill:none;stroke:#000000;stroke-width:5;stroke-linecap:butt;stroke-linejoin:miter;stroke-miterlimit:4;stroke-dasharray:none;stroke-opacity:1"
         id="path32" />
      <path
         d="M 2880,270 V 0"
         style="fill:none;stroke:#000000;stroke-width:5;stroke-linecap:butt;stroke-linejoin:miter;stroke-miterlimit:4;stroke-dasharray:none;stroke-opacity:1"
         id="path34" />
    </g>
  </g>
</svg>
